<svg xmlns="http://www.w3.org/2000/svg" width="100" height="100" viewBox="0 0 100 100"><path fill-rule="evenodd" d="M44.2406503,24.4263466 L38.2015613,35.3782695 C36.5404374,35.5892018 34.9910059,36.5871069 34.0899465,38.2213993 L17.5641308,68.1950213 C16.0429715,70.9540171 16.945695,74.4819312 19.5804203,76.0748381 L29.1216044,81.8432644 C31.7563296,83.4361713 35.1253397,82.4908696 36.646499,79.7318739 L53.1723147,49.7582518 C54.0731254,48.1244104 54.1239158,46.2209205 53.4683696,44.6093101 L59.5066336,33.6559839 C65.6294113,38.0383034 67.5847782,46.6914173 63.8152198,53.5284366 L45.0859621,87.4985416 C41.1309478,94.6719305 32.3715216,97.129715 25.521236,92.988157 L12.1635783,84.9123603 C5.31329264,80.7708022 2.96621145,71.5982254 6.92122569,64.4248366 L25.6504834,30.4547315 C29.4202295,23.6173718 37.5548159,21.06417 44.2406503,24.4263466 Z M74.478764,7.01184298 L87.8364217,15.0876397 C94.6867074,19.2291978 97.0337886,28.4017746 93.0787743,35.5751634 L74.3495166,69.5452685 C70.5797705,76.3826282 62.4451841,78.93583 55.7593497,75.5736534 L61.7984387,64.6217305 C63.4595626,64.4107982 65.0089941,63.4128931 65.9100535,61.7786007 L82.4358692,31.8049787 C83.9570285,29.0459829 83.054305,25.5180688 80.4195797,23.9251619 L70.8783956,18.1567356 C68.2436704,16.5638287 64.8746603,17.5091304 63.353501,20.2681261 L46.8276853,50.2417482 C45.9268746,51.8755896 45.8760842,53.7790795 46.5316304,55.3906899 L40.4933664,66.3440161 C34.3705887,61.9616966 32.4152218,53.3085827 36.1847802,46.4715634 L54.9140379,12.5014584 C58.8690522,5.32806952 67.6284784,2.87028498 74.478764,7.01184298 Z"/></svg>