<svg xmlns="http://www.w3.org/2000/svg" width="100" height="100" viewBox="0 0 100 100">
  <path fill-rule="evenodd" d="M48.6817468,29.9378538 L40.9300532,37.6886605 C39.4263542,37.4750288 37.8440304,37.946531 36.6873942,39.1031672 L15.4741908,60.3163706 C13.5215693,62.2689921 13.5215693,65.434817 15.4741908,67.3874384 L22.5452586,74.4585062 C24.49788,76.4111277 27.6637049,76.4111277 29.6163264,74.4585062 L50.8295298,53.2453028 C51.9858468,52.0889858 52.457408,50.507216 52.2442132,49.0038886 L59.9954982,41.2517132 C64.3804641,46.3591992 64.1535684,54.0633998 59.3148112,58.9021571 L35.2731806,82.9437876 C30.1963648,88.0206034 21.9652201,88.0206034 16.8884043,82.9437876 L6.98890938,73.0442927 C1.91209358,67.9674769 1.91209358,59.7363322 6.98890938,54.6595164 L31.0305399,30.6178858 C35.8695381,25.7788876 43.5742651,25.5522103 48.6817468,29.9378538 Z M82.9769897,18.0562124 L92.8764846,27.9557073 C97.9533004,33.0325231 97.9533004,41.2636678 92.8764846,46.3404836 L68.834854,70.3821142 C63.9958559,75.2211124 56.2911289,75.4477897 51.1836472,71.0621462 L58.9353408,63.3113395 C60.4390398,63.5249712 62.0213636,63.053469 63.1779998,61.8968328 L84.3912032,40.6836294 C86.3438247,38.7310079 86.3438247,35.565183 84.3912032,33.6125616 L77.3201354,26.5414938 C75.367514,24.5888723 72.2016891,24.5888723 70.2490676,26.5414938 L49.0358642,47.7546972 C47.8795471,48.9110142 47.407986,50.492784 47.6211808,51.9961114 L39.8698957,59.7482868 C35.4849299,54.6408008 35.7118256,46.9366002 40.5505828,42.0978429 L64.5922134,18.0562124 C69.6690292,12.9793966 77.9001739,12.9793966 82.9769897,18.0562124 Z"/>
</svg>